<svg width="667" height="692" viewBox="0 0 667 692" fill="none" xmlns="http://www.w3.org/2000/svg">
<path d="M666.5 691C666.5 691.134 666.447 691.262 666.352 691.356C666.256 691.45 666.127 691.502 665.993 691.5L178.044 684.719C177.771 684.715 177.551 684.492 177.551 684.219V248.519C177.551 248.242 177.775 248.019 178.051 248.019H494.879C495.155 248.019 495.379 248.242 495.379 248.519V318.027C495.379 318.303 495.155 318.527 494.879 318.527H270.889V416.704H494.879C495.155 416.704 495.379 416.928 495.379 417.204V496.037C495.379 496.313 495.155 496.537 494.879 496.537H270.889V600.647H566.386V206.465L326.3 103.265L88.7549 206.463V684.219C88.7548 684.495 88.531 684.719 88.2549 684.719H1C0.723878 684.719 0.500033 684.495 0.5 684.219V140.865C0.5 140.665 0.61918 140.484 0.802734 140.405L326.102 0.541016C326.225 0.487903 326.365 0.486966 326.489 0.538086L666.19 140.402C666.378 140.479 666.5 140.663 666.5 140.865V691Z" fill="#398D39" stroke="#398D39" stroke-miterlimit="1" stroke-linejoin="round"/>
</svg>
