<svg width="2308" height="632" viewBox="0 0 2308 632" fill="none" xmlns="http://www.w3.org/2000/svg">
<path d="M616.672 366V126H772.766V162.445H660.148V227.602H764.68V264.047H660.148V329.555H773.703V366H616.672ZM832.73 126L895.191 314.906H897.652L959.996 126H1007.81L923.199 366H869.527L785.035 126H832.73ZM1022.92 366V126H1179.01V162.445H1066.4V227.602H1170.93V264.047H1066.4V329.555H1179.95V366H1022.92ZM1206.87 366V126H1296.87C1315.31 126 1330.78 129.203 1343.28 135.609C1355.85 142.016 1365.35 151 1371.75 162.562C1378.24 174.047 1381.48 187.445 1381.48 202.758C1381.48 218.148 1378.2 231.508 1371.63 242.836C1365.15 254.086 1355.58 262.797 1342.92 268.969C1330.27 275.062 1314.72 278.109 1296.28 278.109H1232.18V242.016H1290.42C1301.21 242.016 1310.03 240.531 1316.91 237.562C1323.78 234.516 1328.86 230.102 1332.14 224.32C1335.5 218.461 1337.18 211.273 1337.18 202.758C1337.18 194.242 1335.5 186.977 1332.14 180.961C1328.78 174.867 1323.67 170.258 1316.79 167.133C1309.92 163.93 1301.05 162.328 1290.19 162.328H1250.35V366H1206.87ZM1330.85 257.25L1390.27 366H1341.75L1283.39 257.25H1330.85ZM1379.25 126H1428.35L1487.06 232.172H1489.4L1548.11 126H1597.21L1509.91 276.469V366H1466.55V276.469L1379.25 126ZM1692.83 366H1611.51V126H1694.47C1718.3 126 1738.77 130.805 1755.88 140.414C1773.07 149.945 1786.27 163.656 1795.49 181.547C1804.71 199.437 1809.32 220.844 1809.32 245.766C1809.32 270.766 1804.67 292.25 1795.37 310.219C1786.15 328.187 1772.83 341.977 1755.41 351.586C1738.07 361.195 1717.21 366 1692.83 366ZM1654.98 328.383H1690.72C1707.44 328.383 1721.39 325.336 1732.56 319.242C1743.73 313.07 1752.13 303.891 1757.76 291.703C1763.38 279.437 1766.19 264.125 1766.19 245.766C1766.19 227.406 1763.38 212.172 1757.76 200.062C1752.13 187.875 1743.81 178.773 1732.79 172.758C1721.86 166.664 1708.26 163.617 1692.01 163.617H1654.98V328.383ZM1852.06 366H1805.65L1890.14 126H1943.81L2028.42 366H1982.02L1917.92 175.219H1916.04L1852.06 366ZM1853.58 271.898H1980.14V306.82H1853.58V271.898ZM2002.64 126H2051.74L2110.45 232.172H2112.79L2171.5 126H2220.61L2133.3 276.469V366H2089.94V276.469L2002.64 126Z" fill="white"/>
<path d="M616.672 366V126H772.766V162.445H660.148V227.602H764.68V264.047H660.148V329.555H773.703V366H616.672ZM832.73 126L895.191 314.906H897.652L959.996 126H1007.81L923.199 366H869.527L785.035 126H832.73ZM1022.92 366V126H1179.01V162.445H1066.4V227.602H1170.93V264.047H1066.4V329.555H1179.95V366H1022.92ZM1206.87 366V126H1296.87C1315.31 126 1330.78 129.203 1343.28 135.609C1355.85 142.016 1365.35 151 1371.75 162.562C1378.24 174.047 1381.48 187.445 1381.48 202.758C1381.48 218.148 1378.2 231.508 1371.63 242.836C1365.15 254.086 1355.58 262.797 1342.92 268.969C1330.27 275.062 1314.72 278.109 1296.28 278.109H1232.18V242.016H1290.42C1301.21 242.016 1310.03 240.531 1316.91 237.562C1323.78 234.516 1328.86 230.102 1332.14 224.32C1335.5 218.461 1337.18 211.273 1337.18 202.758C1337.18 194.242 1335.5 186.977 1332.14 180.961C1328.78 174.867 1323.67 170.258 1316.79 167.133C1309.92 163.93 1301.05 162.328 1290.19 162.328H1250.35V366H1206.87ZM1330.85 257.25L1390.27 366H1341.75L1283.39 257.25H1330.85ZM1379.25 126H1428.35L1487.06 232.172H1489.4L1548.11 126H1597.21L1509.91 276.469V366H1466.55V276.469L1379.25 126ZM1692.83 366H1611.51V126H1694.47C1718.3 126 1738.77 130.805 1755.88 140.414C1773.07 149.945 1786.27 163.656 1795.49 181.547C1804.71 199.437 1809.32 220.844 1809.32 245.766C1809.32 270.766 1804.67 292.25 1795.37 310.219C1786.15 328.187 1772.83 341.977 1755.41 351.586C1738.07 361.195 1717.21 366 1692.83 366ZM1654.98 328.383H1690.72C1707.44 328.383 1721.39 325.336 1732.56 319.242C1743.73 313.07 1752.13 303.891 1757.76 291.703C1763.38 279.437 1766.19 264.125 1766.19 245.766C1766.19 227.406 1763.38 212.172 1757.76 200.062C1752.13 187.875 1743.81 178.773 1732.79 172.758C1721.86 166.664 1708.26 163.617 1692.01 163.617H1654.98V328.383ZM1852.06 366H1805.65L1890.14 126H1943.81L2028.42 366H1982.02L1917.92 175.219H1916.04L1852.06 366ZM1853.58 271.898H1980.14V306.82H1853.58V271.898ZM2002.64 126H2051.74L2110.45 232.172H2112.79L2171.5 126H2220.61L2133.3 276.469V366H2089.94V276.469L2002.64 126Z" fill="white"/>
<path d="M615.457 586V400.545H637.915V483.131H736.8V400.545H759.257V586H736.8V503.053H637.915V586H615.457ZM947.944 493.273C947.944 512.832 944.413 529.736 937.35 543.983C930.286 558.23 920.597 569.217 908.282 576.945C895.966 584.672 881.9 588.536 866.084 588.536C850.267 588.536 836.201 584.672 823.885 576.945C811.57 569.217 801.881 558.23 794.818 543.983C787.754 529.736 784.223 512.832 784.223 493.273C784.223 473.713 787.754 456.81 794.818 442.562C801.881 428.315 811.57 417.328 823.885 409.601C836.201 401.874 850.267 398.01 866.084 398.01C881.9 398.01 895.966 401.874 908.282 409.601C920.597 417.328 930.286 428.315 937.35 442.562C944.413 456.81 947.944 473.713 947.944 493.273ZM926.211 493.273C926.211 477.214 923.525 463.662 918.152 452.614C912.84 441.566 905.626 433.205 896.51 427.531C887.454 421.856 877.312 419.018 866.084 419.018C854.855 419.018 844.683 421.856 835.567 427.531C826.512 433.205 819.297 441.566 813.925 452.614C808.612 463.662 805.956 477.214 805.956 493.273C805.956 509.331 808.612 522.884 813.925 533.931C819.297 544.979 826.512 553.34 835.567 559.015C844.683 564.69 854.855 567.527 866.084 567.527C877.312 567.527 887.454 564.69 896.51 559.015C905.626 553.34 912.84 544.979 918.152 533.931C923.525 522.884 926.211 509.331 926.211 493.273ZM972.955 400.545H999.759L1062.78 554.487H1064.96L1127.98 400.545H1154.79V586H1133.78V445.098H1131.97L1074.01 586H1053.73L995.775 445.098H993.964V586H972.955V400.545ZM1187.07 586V400.545H1298.99V420.467H1209.52V483.131H1293.2V503.053H1209.52V566.078H1300.44V586H1187.07ZM1326.72 586V400.545H1391.55C1404.47 400.545 1415.13 402.779 1423.52 407.246C1431.91 411.653 1438.16 417.6 1442.27 425.086C1446.37 432.511 1448.42 440.751 1448.42 449.807C1448.42 457.776 1447 464.356 1444.17 469.548C1441.39 474.739 1437.71 478.844 1433.12 481.863C1428.59 484.881 1423.67 487.115 1418.36 488.564V490.375C1424.03 490.737 1429.74 492.729 1435.47 496.352C1441.21 499.974 1446.01 505.165 1449.87 511.927C1453.74 518.688 1455.67 526.959 1455.67 536.739C1455.67 546.036 1453.55 554.397 1449.33 561.822C1445.1 569.248 1438.43 575.134 1429.32 579.48C1420.2 583.827 1408.34 586 1393.73 586H1326.72ZM1349.18 566.078H1393.73C1408.4 566.078 1418.81 563.241 1424.97 557.566C1431.19 551.831 1434.3 544.888 1434.3 536.739C1434.3 530.46 1432.7 524.665 1429.5 519.352C1426.3 513.979 1421.74 509.693 1415.82 506.494C1409.91 503.234 1402.9 501.604 1394.81 501.604H1349.18V566.078ZM1349.18 482.044H1390.83C1397.59 482.044 1403.69 480.716 1409.12 478.06C1414.62 475.403 1418.96 471.661 1422.16 466.831C1425.42 462.001 1427.05 456.327 1427.05 449.807C1427.05 441.657 1424.21 434.745 1418.54 429.07C1412.87 423.335 1403.87 420.467 1391.55 420.467H1349.18V482.044ZM1601.52 400.545H1623.98V523.337C1623.98 536.014 1620.99 547.333 1615.01 557.294C1609.1 567.195 1600.74 575.013 1589.93 580.748C1579.13 586.423 1566.45 589.26 1551.9 589.26C1537.35 589.26 1524.67 586.423 1513.87 580.748C1503.06 575.013 1494.67 567.195 1488.69 557.294C1482.78 547.333 1479.82 536.014 1479.82 523.337V400.545H1502.28V521.526C1502.28 530.581 1504.27 538.64 1508.25 545.703C1512.24 552.706 1517.91 558.23 1525.28 562.275C1532.7 566.259 1541.58 568.251 1551.9 568.251C1562.22 568.251 1571.1 566.259 1578.52 562.275C1585.95 558.23 1591.62 552.706 1595.55 545.703C1599.53 538.64 1601.52 530.581 1601.52 521.526V400.545ZM1640.14 400.545H1665.86L1717.29 487.115H1719.46L1770.9 400.545H1796.62L1729.61 509.572V586H1707.15V509.572L1640.14 400.545ZM1812.91 586V400.545H1924.84V420.467H1835.37V483.131H1919.04V503.053H1835.37V566.078H1926.29V586H1812.91ZM1952.56 586V400.545H2015.23C2029.72 400.545 2041.61 403.021 2050.91 407.971C2060.2 412.861 2067.08 419.592 2071.55 428.164C2076.02 436.737 2078.25 446.487 2078.25 457.413C2078.25 468.34 2076.02 478.029 2071.55 486.481C2067.08 494.933 2060.23 501.574 2051 506.403C2041.76 511.172 2029.96 513.557 2015.59 513.557H1964.88V493.273H2014.86C2024.77 493.273 2032.73 491.824 2038.77 488.926C2044.87 486.028 2049.28 481.923 2051.99 476.611C2054.77 471.238 2056.16 464.839 2056.16 457.413C2056.16 449.988 2054.77 443.498 2051.99 437.944C2049.22 432.39 2044.78 428.104 2038.68 425.086C2032.58 422.007 2024.52 420.467 2014.5 420.467H1975.02V586H1952.56ZM2039.86 502.69L2085.5 586H2059.42L2014.5 502.69H2039.86ZM2204.34 446.909C2203.26 437.733 2198.85 430.609 2191.12 425.538C2183.4 420.467 2173.92 417.932 2162.69 417.932C2154.48 417.932 2147.3 419.26 2141.14 421.916C2135.04 424.572 2130.27 428.225 2126.83 432.873C2123.45 437.522 2121.76 442.804 2121.76 448.72C2121.76 453.67 2122.94 457.926 2125.29 461.488C2127.71 464.99 2130.78 467.918 2134.53 470.272C2138.27 472.566 2142.19 474.468 2146.3 475.977C2150.4 477.426 2154.18 478.603 2157.62 479.509L2176.45 484.58C2181.28 485.847 2186.66 487.598 2192.57 489.832C2198.55 492.065 2204.25 495.114 2209.69 498.978C2215.18 502.781 2219.71 507.671 2223.27 513.647C2226.83 519.624 2228.61 526.959 2228.61 535.652C2228.61 545.673 2225.99 554.729 2220.73 562.818C2215.54 570.908 2207.94 577.337 2197.92 582.106C2187.95 586.875 2175.85 589.26 2161.6 589.26C2148.32 589.26 2136.82 587.117 2127.1 582.831C2117.44 578.544 2109.84 572.568 2104.28 564.901C2098.79 557.234 2095.68 548.33 2094.96 538.188H2118.14C2118.74 545.19 2121.1 550.986 2125.2 555.574C2129.37 560.102 2134.62 563.482 2140.96 565.716C2147.36 567.889 2154.24 568.976 2161.6 568.976C2170.18 568.976 2177.87 567.587 2184.69 564.81C2191.52 561.973 2196.92 558.049 2200.9 553.038C2204.89 547.967 2206.88 542.051 2206.88 535.29C2206.88 529.132 2205.16 524.121 2201.72 520.258C2198.28 516.394 2193.75 513.255 2188.14 510.84C2182.52 508.425 2176.45 506.312 2169.93 504.501L2147.11 497.982C2132.63 493.816 2121.16 487.87 2112.7 480.142C2104.25 472.415 2100.03 462.303 2100.03 449.807C2100.03 439.423 2102.83 430.368 2108.45 422.641C2114.12 414.853 2121.73 408.816 2131.27 404.53C2140.87 400.183 2151.58 398.01 2163.41 398.01C2175.37 398.01 2185.99 400.153 2195.29 404.439C2204.59 408.665 2211.95 414.461 2217.38 421.826C2222.88 429.191 2225.78 437.552 2226.08 446.909H2204.34Z" fill="white"/>
<path d="M615.457 586V400.545H637.915V483.131H736.8V400.545H759.257V586H736.8V503.053H637.915V586H615.457ZM947.944 493.273C947.944 512.832 944.413 529.736 937.35 543.983C930.286 558.23 920.597 569.217 908.282 576.945C895.966 584.672 881.9 588.536 866.084 588.536C850.267 588.536 836.201 584.672 823.885 576.945C811.57 569.217 801.881 558.23 794.818 543.983C787.754 529.736 784.223 512.832 784.223 493.273C784.223 473.713 787.754 456.81 794.818 442.562C801.881 428.315 811.57 417.328 823.885 409.601C836.201 401.874 850.267 398.01 866.084 398.01C881.9 398.01 895.966 401.874 908.282 409.601C920.597 417.328 930.286 428.315 937.35 442.562C944.413 456.81 947.944 473.713 947.944 493.273ZM926.211 493.273C926.211 477.214 923.525 463.662 918.152 452.614C912.84 441.566 905.626 433.205 896.51 427.531C887.454 421.856 877.312 419.018 866.084 419.018C854.855 419.018 844.683 421.856 835.567 427.531C826.512 433.205 819.297 441.566 813.925 452.614C808.612 463.662 805.956 477.214 805.956 493.273C805.956 509.331 808.612 522.884 813.925 533.931C819.297 544.979 826.512 553.34 835.567 559.015C844.683 564.69 854.855 567.527 866.084 567.527C877.312 567.527 887.454 564.69 896.51 559.015C905.626 553.34 912.84 544.979 918.152 533.931C923.525 522.884 926.211 509.331 926.211 493.273ZM972.955 400.545H999.759L1062.78 554.487H1064.96L1127.98 400.545H1154.79V586H1133.78V445.098H1131.97L1074.01 586H1053.73L995.775 445.098H993.964V586H972.955V400.545ZM1187.07 586V400.545H1298.99V420.467H1209.52V483.131H1293.2V503.053H1209.52V566.078H1300.44V586H1187.07ZM1326.72 586V400.545H1391.55C1404.47 400.545 1415.13 402.779 1423.52 407.246C1431.91 411.653 1438.16 417.6 1442.27 425.086C1446.37 432.511 1448.42 440.751 1448.42 449.807C1448.42 457.776 1447 464.356 1444.17 469.548C1441.39 474.739 1437.71 478.844 1433.12 481.863C1428.59 484.881 1423.67 487.115 1418.36 488.564V490.375C1424.03 490.737 1429.74 492.729 1435.47 496.352C1441.21 499.974 1446.01 505.165 1449.87 511.927C1453.74 518.688 1455.67 526.959 1455.67 536.739C1455.67 546.036 1453.55 554.397 1449.33 561.822C1445.1 569.248 1438.43 575.134 1429.32 579.48C1420.2 583.827 1408.34 586 1393.73 586H1326.72ZM1349.18 566.078H1393.73C1408.4 566.078 1418.81 563.241 1424.97 557.566C1431.19 551.831 1434.3 544.888 1434.3 536.739C1434.3 530.46 1432.7 524.665 1429.5 519.352C1426.3 513.979 1421.74 509.693 1415.82 506.494C1409.91 503.234 1402.9 501.604 1394.81 501.604H1349.18V566.078ZM1349.18 482.044H1390.83C1397.59 482.044 1403.69 480.716 1409.12 478.06C1414.62 475.403 1418.96 471.661 1422.16 466.831C1425.42 462.001 1427.05 456.327 1427.05 449.807C1427.05 441.657 1424.21 434.745 1418.54 429.07C1412.87 423.335 1403.87 420.467 1391.55 420.467H1349.18V482.044ZM1601.52 400.545H1623.98V523.337C1623.98 536.014 1620.99 547.333 1615.01 557.294C1609.1 567.195 1600.74 575.013 1589.93 580.748C1579.13 586.423 1566.45 589.26 1551.9 589.26C1537.35 589.26 1524.67 586.423 1513.87 580.748C1503.06 575.013 1494.67 567.195 1488.69 557.294C1482.78 547.333 1479.82 536.014 1479.82 523.337V400.545H1502.28V521.526C1502.28 530.581 1504.27 538.64 1508.25 545.703C1512.24 552.706 1517.91 558.23 1525.28 562.275C1532.7 566.259 1541.58 568.251 1551.9 568.251C1562.22 568.251 1571.1 566.259 1578.52 562.275C1585.95 558.23 1591.62 552.706 1595.55 545.703C1599.53 538.64 1601.52 530.581 1601.52 521.526V400.545ZM1640.14 400.545H1665.86L1717.29 487.115H1719.46L1770.9 400.545H1796.62L1729.61 509.572V586H1707.15V509.572L1640.14 400.545ZM1812.91 586V400.545H1924.84V420.467H1835.37V483.131H1919.04V503.053H1835.37V566.078H1926.29V586H1812.91ZM1952.56 586V400.545H2015.23C2029.72 400.545 2041.61 403.021 2050.91 407.971C2060.2 412.861 2067.08 419.592 2071.55 428.164C2076.02 436.737 2078.25 446.487 2078.25 457.413C2078.25 468.34 2076.02 478.029 2071.55 486.481C2067.08 494.933 2060.23 501.574 2051 506.403C2041.76 511.172 2029.96 513.557 2015.59 513.557H1964.88V493.273H2014.86C2024.77 493.273 2032.73 491.824 2038.77 488.926C2044.87 486.028 2049.28 481.923 2051.99 476.611C2054.77 471.238 2056.16 464.839 2056.16 457.413C2056.16 449.988 2054.77 443.498 2051.99 437.944C2049.22 432.39 2044.78 428.104 2038.68 425.086C2032.58 422.007 2024.52 420.467 2014.5 420.467H1975.02V586H1952.56ZM2039.86 502.69L2085.5 586H2059.42L2014.5 502.69H2039.86ZM2204.34 446.909C2203.26 437.733 2198.85 430.609 2191.12 425.538C2183.4 420.467 2173.92 417.932 2162.69 417.932C2154.48 417.932 2147.3 419.26 2141.14 421.916C2135.04 424.572 2130.27 428.225 2126.83 432.873C2123.45 437.522 2121.76 442.804 2121.76 448.72C2121.76 453.67 2122.94 457.926 2125.29 461.488C2127.71 464.99 2130.78 467.918 2134.53 470.272C2138.27 472.566 2142.19 474.468 2146.3 475.977C2150.4 477.426 2154.18 478.603 2157.62 479.509L2176.45 484.58C2181.28 485.847 2186.66 487.598 2192.57 489.832C2198.55 492.065 2204.25 495.114 2209.69 498.978C2215.18 502.781 2219.71 507.671 2223.27 513.647C2226.83 519.624 2228.61 526.959 2228.61 535.652C2228.61 545.673 2225.99 554.729 2220.73 562.818C2215.54 570.908 2207.94 577.337 2197.92 582.106C2187.95 586.875 2175.85 589.26 2161.6 589.26C2148.32 589.26 2136.82 587.117 2127.1 582.831C2117.44 578.544 2109.84 572.568 2104.28 564.901C2098.79 557.234 2095.68 548.33 2094.96 538.188H2118.14C2118.74 545.19 2121.1 550.986 2125.2 555.574C2129.37 560.102 2134.62 563.482 2140.96 565.716C2147.36 567.889 2154.24 568.976 2161.6 568.976C2170.18 568.976 2177.87 567.587 2184.69 564.81C2191.52 561.973 2196.92 558.049 2200.9 553.038C2204.89 547.967 2206.88 542.051 2206.88 535.29C2206.88 529.132 2205.16 524.121 2201.72 520.258C2198.28 516.394 2193.75 513.255 2188.14 510.84C2182.52 508.425 2176.45 506.312 2169.93 504.501L2147.11 497.982C2132.63 493.816 2121.16 487.87 2112.7 480.142C2104.25 472.415 2100.03 462.303 2100.03 449.807C2100.03 439.423 2102.83 430.368 2108.45 422.641C2114.12 414.853 2121.73 408.816 2131.27 404.53C2140.87 400.183 2151.58 398.01 2163.41 398.01C2175.37 398.01 2185.99 400.153 2195.29 404.439C2204.59 408.665 2211.95 414.461 2217.38 421.826C2222.88 429.191 2225.78 437.552 2226.08 446.909H2204.34Z" fill="white"/>
<path d="M571 120V592L152.024 586.182V212.363H424.067V272H231.31V357.091H424.067V424.728H231.31V514.909H485.896V176L279.317 87.2725L74.9209 176V586.182H0V120L279.317 0L571 120Z" fill="white"/>
<path d="M571 120V592L152.024 586.182V212.363H424.067V272H231.31V357.091H424.067V424.728H231.31V514.909H485.896V176L279.317 87.2725L74.9209 176V586.182H0V120L279.317 0L571 120Z" stroke="white"/>
</svg>
