<svg width="2046" height="592" viewBox="0 0 2046 592" fill="none" xmlns="http://www.w3.org/2000/svg">
<path d="M571 120V592L152.024 586.182V212.363H424.067V272H231.31V357.091H424.067V424.728H231.31V514.909H485.896V176L279.317 87.2725L74.9209 176V586.182H0V120L279.317 0L571 120Z" fill="#398D39"/>
<path d="M571 120V592L152.024 586.182V212.363H424.067V272H231.31V357.091H424.067V424.728H231.31V514.909H485.896V176L279.317 87.2725L74.9209 176V586.182H0V120L279.317 0L571 120Z" stroke="#398D39"/>
<path d="M571 120V592L152.024 586.182V212.363H424.067V272H231.31V357.091H424.067V424.728H231.31V514.909H485.896V176L279.317 87.2725L74.9209 176V586.182H0V120L279.317 0L571 120Z" fill="#1D2324"/>
<path d="M571 120V592L152.024 586.182V212.363H424.067V272H231.31V357.091H424.067V424.728H231.31V514.909H485.896V176L279.317 87.2725L74.9209 176V586.182H0V120L279.317 0L571 120Z" stroke="#398D39"/>
<path d="M638.218 352V141H775.146V173.042H676.356V230.325H768.053V262.366H676.356V319.958H775.969V352H638.218ZM827.748 141L882.54 307.08H884.699L939.388 141H981.33L907.109 352H860.027L785.909 141H827.748ZM994.586 352V141H1131.51V173.042H1032.72V230.325H1124.42V262.366H1032.72V319.958H1132.34V352H994.586ZM1155.95 352V141H1234.9C1251.07 141 1264.64 143.816 1275.61 149.448C1286.64 155.08 1294.97 162.979 1300.59 173.145C1306.28 183.241 1309.12 195.02 1309.12 208.483C1309.12 222.014 1306.24 233.759 1300.49 243.718C1294.8 253.609 1286.4 261.267 1275.3 266.693C1264.2 272.051 1250.56 274.73 1234.39 274.73H1178.15V242.997H1229.25C1238.7 242.997 1246.45 241.692 1252.48 239.082C1258.51 236.403 1262.96 232.523 1265.84 227.44C1268.79 222.288 1270.26 215.969 1270.26 208.483C1270.26 200.996 1268.79 194.608 1265.84 189.32C1262.89 183.963 1258.41 179.91 1252.38 177.163C1246.34 174.346 1238.57 172.939 1229.04 172.939H1194.09V352H1155.95ZM1264.71 256.391L1316.83 352H1274.27L1223.08 256.391H1264.71ZM1307.16 141H1350.23L1401.74 234.342H1403.79L1455.3 141H1498.37L1421.78 273.287V352H1383.75V273.287L1307.16 141ZM1582.25 352H1510.9V141H1583.69C1604.59 141 1622.54 145.224 1637.56 153.672C1652.63 162.052 1664.21 174.106 1672.3 189.835C1680.39 205.564 1684.43 224.383 1684.43 246.293C1684.43 268.273 1680.35 287.161 1672.2 302.959C1664.11 318.757 1652.42 330.879 1637.14 339.328C1621.93 347.776 1603.63 352 1582.25 352ZM1549.04 318.928H1580.4C1595.06 318.928 1607.3 316.25 1617.09 310.892C1626.9 305.466 1634.26 297.395 1639.19 286.681C1644.14 275.897 1646.6 262.434 1646.6 246.293C1646.6 230.153 1644.14 216.76 1639.19 206.113C1634.26 195.399 1626.97 187.397 1617.3 182.108C1607.71 176.751 1595.78 174.071 1581.53 174.071H1549.04V318.928ZM1721.92 352H1681.21L1755.33 141H1802.41L1876.63 352H1835.92L1779.69 184.272H1778.05L1721.92 352ZM1723.25 269.269H1834.28V299.972H1723.25V269.269ZM1854.01 141H1897.08L1948.59 234.342H1950.65L2002.14 141H2045.22L1968.63 273.287V352H1930.59V273.287L1854.01 141Z" fill="#1D2324"/>
<path d="M638 569.744V384.532H700.482C714.989 384.532 726.848 387.155 736.057 392.4C745.327 397.585 752.189 404.608 756.644 413.472C761.099 422.334 763.325 432.222 763.325 443.134C763.325 454.047 761.099 463.965 756.644 472.888C752.249 481.81 745.448 488.925 736.238 494.23C727.028 499.476 715.23 502.099 700.843 502.099H656.058V482.203H700.121C710.053 482.203 718.028 480.484 724.048 477.048C730.068 473.611 734.432 468.969 737.141 463.121C739.91 457.213 741.294 450.55 741.294 443.134C741.294 435.719 739.91 429.086 737.141 423.239C734.432 417.391 730.038 412.809 723.958 409.492C717.878 406.116 709.812 404.428 699.76 404.428H660.392V569.744H638ZM786.684 569.744V384.532H849.166C863.613 384.532 875.471 387.004 884.741 391.948C894.011 396.832 900.873 403.554 905.328 412.115C909.782 420.676 912.01 430.414 912.01 441.325C912.01 452.238 909.782 461.914 905.328 470.355C900.873 478.796 894.041 485.429 884.832 490.251C875.621 495.014 863.854 497.396 849.527 497.396H798.964V477.138H848.805C858.677 477.138 866.623 475.691 872.642 472.797C878.721 469.903 883.116 465.803 885.825 460.498C888.594 455.132 889.978 448.742 889.978 441.325C889.978 433.91 888.594 427.429 885.825 421.882C883.056 416.335 878.632 412.055 872.551 409.041C866.472 405.966 858.436 404.428 848.444 404.428H809.076V569.744H786.684ZM873.726 486.543L919.233 569.744H893.228L848.444 486.543H873.726ZM1092.63 477.138C1092.63 496.672 1089.11 513.554 1082.07 527.782C1075.03 542.011 1065.37 552.983 1053.09 560.701C1040.81 568.418 1026.78 572.277 1011.01 572.277C995.24 572.277 981.214 568.418 968.934 560.701C956.654 552.983 946.993 542.011 939.95 527.782C932.907 513.554 929.387 496.672 929.387 477.138C929.387 457.604 932.907 440.723 939.95 426.494C946.993 412.265 956.654 401.293 968.934 393.576C981.214 385.859 995.24 382 1011.01 382C1026.78 382 1040.81 385.859 1053.09 393.576C1065.37 401.293 1075.03 412.265 1082.07 426.494C1089.11 440.723 1092.63 457.604 1092.63 477.138ZM1070.96 477.138C1070.96 461.1 1068.29 447.566 1062.93 436.533C1057.63 425.499 1050.44 417.149 1041.35 411.482C1032.32 405.815 1022.21 402.981 1011.01 402.981C999.814 402.981 989.672 405.815 980.582 411.482C971.552 417.149 964.359 425.499 959.002 436.533C953.705 447.566 951.057 461.1 951.057 477.138C951.057 493.175 953.705 506.711 959.002 517.743C964.359 528.777 971.552 537.127 980.582 542.795C989.672 548.462 999.814 551.295 1011.01 551.295C1022.21 551.295 1032.32 548.462 1041.35 542.795C1050.44 537.127 1057.63 528.777 1062.93 517.743C1068.29 506.711 1070.96 493.175 1070.96 477.138ZM1117.57 569.744V384.532H1180.06C1194.56 384.532 1206.42 387.155 1215.63 392.4C1224.9 397.585 1231.76 404.608 1236.22 413.472C1240.67 422.334 1242.9 432.222 1242.9 443.134C1242.9 454.047 1240.67 463.965 1236.22 472.888C1231.82 481.81 1225.02 488.925 1215.81 494.23C1206.6 499.476 1194.8 502.099 1180.42 502.099H1135.63V482.203H1179.69C1189.63 482.203 1197.6 480.484 1203.62 477.048C1209.64 473.611 1214.01 468.969 1216.71 463.121C1219.48 457.213 1220.87 450.55 1220.87 443.134C1220.87 435.719 1219.48 429.086 1216.71 423.239C1214.01 417.391 1209.61 412.809 1203.53 409.492C1197.45 406.116 1189.39 404.428 1179.33 404.428H1139.97V569.744H1117.57ZM1266.26 569.744V384.532H1377.86V404.428H1288.65V467.01H1372.08V486.906H1288.65V549.848H1379.3V569.744H1266.26ZM1405.51 569.744V384.532H1467.99C1482.43 384.532 1494.29 387.004 1503.56 391.948C1512.83 396.832 1519.69 403.554 1524.15 412.115C1528.6 420.676 1530.83 430.414 1530.83 441.325C1530.83 452.238 1528.6 461.914 1524.15 470.355C1519.69 478.796 1512.86 485.429 1503.65 490.251C1494.44 495.014 1482.67 497.396 1468.35 497.396H1417.79V477.138H1467.63C1477.5 477.138 1485.44 475.691 1491.46 472.797C1497.54 469.903 1501.94 465.803 1504.65 460.498C1507.42 455.132 1508.8 448.742 1508.8 441.325C1508.8 433.91 1507.42 427.429 1504.65 421.882C1501.88 416.335 1497.45 412.055 1491.37 409.041C1485.29 405.966 1477.26 404.428 1467.27 404.428H1427.9V569.744H1405.51ZM1492.55 486.543L1538.05 569.744H1512.05L1467.27 486.543H1492.55ZM1545.32 404.428V384.532H1684.01V404.428H1625.86V569.744H1603.47V404.428H1545.32ZM1728.24 384.532V569.744H1705.86V384.532H1728.24ZM1760.43 569.744V384.532H1872.03V404.428H1782.82V467.01H1866.25V486.906H1782.82V549.848H1873.48V569.744H1760.43ZM2000.81 430.835C1999.72 421.671 1995.33 414.556 1987.62 409.492C1979.92 404.428 1970.47 401.896 1959.27 401.896C1951.08 401.896 1943.93 403.222 1937.78 405.875C1931.7 408.527 1926.94 412.175 1923.51 416.817C1920.14 421.46 1918.46 426.735 1918.46 432.644C1918.46 437.587 1919.64 441.838 1921.98 445.395C1924.39 448.892 1927.46 451.817 1931.19 454.168C1934.92 456.459 1938.84 458.358 1942.93 459.865C1947.03 461.312 1950.79 462.488 1954.22 463.392L1973 468.457C1977.81 469.722 1983.17 471.471 1989.06 473.702C1995.03 475.932 2000.72 478.977 2006.13 482.836C2011.61 486.634 2016.13 491.518 2019.68 497.486C2023.23 503.455 2025 510.78 2025 519.462C2025 529.47 2022.39 538.514 2017.15 546.593C2011.97 554.672 2004.39 561.093 1994.4 565.855C1984.47 570.618 1972.39 573 1958.18 573C1944.94 573 1933.48 570.86 1923.78 566.579C1914.15 562.298 1906.57 556.33 1901.03 548.673C1895.56 541.016 1892.45 532.123 1891.74 521.995H1914.85C1915.45 528.988 1917.8 534.776 1921.89 539.358C1926.05 543.88 1931.28 547.256 1937.6 549.487C1943.98 551.657 1950.85 552.743 1958.18 552.743C1966.74 552.743 1974.41 551.355 1981.22 548.582C1988.02 545.749 1993.4 541.83 1997.37 536.825C2001.35 531.761 2003.33 525.853 2003.33 519.101C2003.33 512.951 2001.62 507.946 1998.19 504.088C1994.76 500.229 1990.24 497.094 1984.65 494.682C1979.04 492.271 1973 490.16 1966.5 488.352L1943.75 481.841C1929.3 477.681 1917.86 471.743 1909.44 464.025C1901 456.308 1896.79 446.209 1896.79 433.729C1896.79 423.359 1899.58 414.316 1905.19 406.599C1910.84 398.821 1918.43 392.792 1927.94 388.511C1937.51 384.17 1948.19 382 1960 382C1971.91 382 1982.5 384.14 1991.78 388.421C2001.05 392.641 2008.39 398.429 2013.81 405.785C2019.29 413.14 2022.18 421.49 2022.48 430.835H2000.81Z" fill="#1D2324"/>
</svg>
